<svg xmlns="http://www.w3.org/2000/svg" width="130" height="32" viewBox="0 0 260 64">
  <defs>
    <style>
      .cls-1 {
        fill: #d09c46;
        fill-rule: evenodd;
      }
    </style>
  </defs>
  <path id="luxima" class="cls-1" d="M20.08,51.338V14.88A4.1,4.1,0,0,1,21.6,12.634,6.919,6.919,0,0,1,24.1,11.38H11.388a7.212,7.212,0,0,1,2.537,1.254,3.775,3.775,0,0,1,1.488,2.246V48.422a3.77,3.77,0,0,1-1.488,2.246,7.2,7.2,0,0,1-2.537,1.254H38.63l1.342-8.108a30.413,30.413,0,0,1-6.854,5.046,26.751,26.751,0,0,1-4.083,1.779,12.3,12.3,0,0,1-3.937.7H20.08Zm53.8-39.783a7.212,7.212,0,0,1,2.537,1.254,4.056,4.056,0,0,1,1.546,2.246V35A26.159,26.159,0,0,1,77,42.588a15.127,15.127,0,0,1-2.6,5.163A9.9,9.9,0,0,1,70.585,50.7a11.547,11.547,0,0,1-4.579.933,10.452,10.452,0,0,1-4.579-.992A9.415,9.415,0,0,1,57.868,47.6a15.24,15.24,0,0,1-2.3-5.192A29.716,29.716,0,0,1,54.747,35V15.055a4.1,4.1,0,0,1,1.517-2.246,6.919,6.919,0,0,1,2.508-1.254H46.056a7.212,7.212,0,0,1,2.538,1.254,3.775,3.775,0,0,1,1.487,2.246V35a26.4,26.4,0,0,0,1.108,8.167,14.805,14.805,0,0,0,3.033,5.483A11.4,11.4,0,0,0,58.8,51.717a16.727,16.727,0,0,0,5.746.962,15.2,15.2,0,0,0,5.658-1.021,11.1,11.1,0,0,0,4.4-3.179,15.225,15.225,0,0,0,2.858-5.512A27.528,27.528,0,0,0,78.489,35V15.055a4.052,4.052,0,0,1,1.546-2.246,7.2,7.2,0,0,1,2.537-1.254H73.881Zm54.664,40.367a7.05,7.05,0,0,1-1.692-.671,18.95,18.95,0,0,1-1.867-1.137,20.426,20.426,0,0,1-1.779-1.371,11.275,11.275,0,0,1-1.371-1.371L111.278,29.113l9.333-13.767a16.426,16.426,0,0,1,1.459-1.283,13.644,13.644,0,0,1,1.75-1.167,20.838,20.838,0,0,1,1.866-.933,9.8,9.8,0,0,1,1.692-.583H118.57a3.334,3.334,0,0,1,1.371.9,2.066,2.066,0,0,1,.554,1.429,2.849,2.849,0,0,1-.234,1.167l-9.333,13.65L103,14.88a2.986,2.986,0,0,1-.175-0.933,2.213,2.213,0,0,1,.641-1.633,3.794,3.794,0,0,1,1.575-.933H91.5a8.387,8.387,0,0,1,1.633.583,19.2,19.2,0,0,1,1.75.933,14.207,14.207,0,0,1,1.663,1.167,9.228,9.228,0,0,1,1.313,1.283l10.15,17.5L97.686,47.955a10.506,10.506,0,0,1-1.429,1.283A15.568,15.568,0,0,1,94.478,50.4q-0.934.525-1.837,0.933a8.565,8.565,0,0,1-1.721.583h8.808a3.312,3.312,0,0,1-1.371-.9,2.059,2.059,0,0,1-.554-1.429,2.838,2.838,0,0,1,.233-1.167l10.325-15.05,8.75,15.05a2.484,2.484,0,0,1,.117.875,2.373,2.373,0,0,1-.612,1.663,3.44,3.44,0,0,1-1.546.962h13.475ZM146.214,14.88a4.094,4.094,0,0,1,1.517-2.246,6.914,6.914,0,0,1,2.508-1.254H137.522a7.219,7.219,0,0,1,2.538,1.254,3.777,3.777,0,0,1,1.487,2.246V48.422a3.772,3.772,0,0,1-1.487,2.246,7.206,7.206,0,0,1-2.538,1.254h12.717a6.9,6.9,0,0,1-2.508-1.254,4.088,4.088,0,0,1-1.517-2.246V14.88ZM182.8,50.988a5.041,5.041,0,0,0,1.458-3.617,8.84,8.84,0,0,0-1.313-4.346q-1.312-2.3-3.179-5.571l14.875-22.867V48.422a4.047,4.047,0,0,1-1.546,2.246,7.193,7.193,0,0,1-2.537,1.254h12.775a7.189,7.189,0,0,1-2.538-1.254,4.045,4.045,0,0,1-1.545-2.246V14.88a4.051,4.051,0,0,1,1.545-2.246,7.2,7.2,0,0,1,2.538-1.254h-7.292L179.476,36.872l-14-25.492h-6.359a4.318,4.318,0,0,1,1.313.642,7.262,7.262,0,0,1,1.225,1.079,6.762,6.762,0,0,1,.933,1.313,6.3,6.3,0,0,1,.554,1.342V47.78a5.525,5.525,0,0,1-1.487,2.538,5.441,5.441,0,0,1-2.538,1.6h8.692a5.431,5.431,0,0,1-2.538-1.6,6.042,6.042,0,0,1-1.545-2.538V16.863l11.608,21.058,1.633,2.8A29.98,29.98,0,0,0,174.9,44.28a7.139,7.139,0,0,0-.787,3.092,4.98,4.98,0,0,0,.612,2.45,5.121,5.121,0,0,0,1.663,1.808,4.233,4.233,0,0,0,2.8.875A4.82,4.82,0,0,0,182.8,50.988Zm-7.2-.963a3.851,3.851,0,0,1-.9-2.654,6.459,6.459,0,0,1,.7-2.712,32.931,32.931,0,0,1,1.867-3.354q1.283,2.159,2.187,3.908a6.716,6.716,0,0,1,.905,2.917,3.093,3.093,0,0,1-.73,2.042,2.413,2.413,0,0,1-1.954.875A2.706,2.706,0,0,1,175.6,50.026Zm76.971,1.9a8.611,8.611,0,0,1-3.062-1.458,6.937,6.937,0,0,1-2.363-3.092L232.617,11.38h-7.875a3.938,3.938,0,0,1,1.254.613,9.735,9.735,0,0,1,1.225,1.05,9.245,9.245,0,0,1,1.109,1.342,12.706,12.706,0,0,1,.846,1.429l0.466,1.225-12.25,30.333a6.949,6.949,0,0,1-2.362,3.092,8.623,8.623,0,0,1-3.063,1.458h8.284a3.805,3.805,0,0,1-1.867-1.108,2.805,2.805,0,0,1-.758-1.983V48.422l3.441-8.575h17.792l3.5,8.575V48.83a2.809,2.809,0,0,1-.758,1.983,3.819,3.819,0,0,1-1.867,1.108h12.833ZM238.626,39.263H221.3l8.691-21.408Z"/>
</svg>
